<svg xmlns="http://www.w3.org/2000/svg" xmlns:xlink="http://www.w3.org/1999/xlink" viewBox="0 0 80 80"><defs><path id="a" d="M.012.008H80V80H.012z"></path></defs><g fill="none" fill-rule="evenodd"><mask id="b" fill="#fff"><use xlink:href="#a"></use></mask><path fill="#000" d="M49.247 27.637l2.572-8.655 2.635 8.655h-5.207zm12.826 7.56l-6.75-20.427c-.151-.45-.322-.746-.514-.885-.194-.139-.505-.21-.933-.21h-3.73c-.428 0-.743.077-.948.226-.203.149-.37.44-.498.869l-6.815 20.427c-.086.107-.128.32-.128.641 0 .495.3.741.9.741h2.797c.257 0 .465-.01.626-.031a.7.7 0 0 0 .386-.163c.097-.084.182-.214.258-.385.074-.172.154-.397.24-.675l1.061-3.57h7.684L56.8 35.26c.086.3.171.536.257.709.085.17.182.304.29.4a.708.708 0 0 0 .385.179c.15.02.343.031.578.031h2.99c.6 0 .9-.246.9-.74 0-.15-.005-.252-.015-.304a2.988 2.988 0 0 0-.113-.338zM58.76 43.42h-2.155c-.557 0-.927.08-1.109.24-.182.163-.272.49-.272.982V56.77l-6.365-12.157c-.257-.516-.51-.843-.756-.982-.247-.139-.68-.21-1.301-.21h-1.994c-.557 0-.927.082-1.109.242-.182.162-.273.489-.273.981v20.458c0 .495.085.82.257.982.172.16.536.241 1.093.241h2.187c.556 0 .926-.081 1.108-.24.181-.163.273-.488.273-.983v-12.16l6.365 12.192c.257.516.508.843.756.982.246.14.68.209 1.301.209h1.994c.557 0 .926-.081 1.109-.24.181-.163.273-.488.273-.983V44.643c0-.492-.092-.82-.273-.981-.183-.16-.552-.241-1.11-.241zm10.676-1.937l5.55 5.55v27.951H5.016V47.03l5.544-5.545c.82-.82.82-2.149 0-2.968L5.015 32.97V5.015h69.97v27.95l-5.55 5.55c-.82.82-.82 2.149 0 2.969zM80 0H0v35.378L4.622 40 0 44.622V80h80V44.622L75.378 40 80 35.378V0zM35.568 61.562H26.53l9.516-13.38c.15-.214.247-.387.29-.515.043-.128.064-.278.064-.45v-2.574c0-.492-.092-.82-.274-.981-.182-.16-.554-.241-1.113-.241h-13.74c-.495 0-.816.091-.967.272-.15.183-.226.563-.226 1.144v1.93c0 .578.075.96.226 1.14.15.184.472.275.967.275h8.482l-9.386 13.38c-.237.301-.356.602-.356.9v2.64c0 .494.092.819.275.981.182.16.554.241 1.113.241h14.166c.494 0 .817-.092.968-.272.15-.183.226-.563.226-1.144v-1.93c0-.578-.076-.958-.226-1.14-.15-.184-.474-.276-.968-.276zm-4.207-34.12c0 .88-.058 1.616-.176 2.205s-.31 1.068-.578 1.432c-.268.364-.622.62-1.061.772-.44.15-.981.225-1.623.225h-2.636V18.178h2.636c1.221 0 2.099.362 2.635 1.079.535.717.803 1.903.803 3.555v4.63zm4.598-9.295c-.75-1.524-1.774-2.65-3.07-3.377-1.297-.73-2.931-1.094-4.902-1.094h-6.59c-.557 0-.927.08-1.11.24-.181.163-.273.49-.273.982v20.458c0 .495.092.82.274.982.182.16.552.241 1.109.241h7.393c3.493 0 5.883-1.49 7.169-4.471.3-.686.509-1.377.626-2.076.118-.697.177-1.581.177-2.652v-4.343c0-1.223-.059-2.188-.177-2.895a7.348 7.348 0 0 0-.626-1.995z" mask="url(#b)"></path></g></svg>